<?xml version="1.0" encoding="utf-8"?>
<!-- Generator: Adobe Illustrator 24.2.1, SVG Export Plug-In . SVG Version: 6.00 Build 0)  -->
<svg version="1.1" id="Layer_1" xmlns="http://www.w3.org/2000/svg" xmlns:xlink="http://www.w3.org/1999/xlink" x="0px" y="0px"
	 viewBox="0 0 500 500" style="enable-background:new 0 0 500 500;" xml:space="preserve">
<style type="text/css">
	.st0{fill:#FFFFFF;}
</style>
<path class="st0" d="M428.9,367.3l-3.8-8.3l-3.9,8.3c-4.2,8.9-10.3,16.3-12.3,16c0,0-4.6-1.9-5.9-27.1c-1.4-25.4-13.7-45-34.9-55.2
	c-22.3-10.8-51.5-9.5-76.4,2.6c-0.1-0.1-0.1-0.3-0.2-0.4c-2.1-2.9-4.9-5.1-8.2-6.5c-1.4-0.6-2.9-1-4.5-1.3
	c10.7-14.4,29.7-24.3,50.3-26.4c3.1-0.3,6.3-0.5,9.5-0.5c7.9,0,15.7,1,23,3.3c9.8,3,17.6,8.5,22.8,15.9c6.2,8.9,8.9,19.2,12.4,28.9
	c0.5,1.3,1.7,1.9,3,1.9c1.5,0,3-0.7,3.3-1.9c0,0,0,0,0,0c6.9-11.6,8.1-24.6,7.7-37.3c-0.4-13-2.9-25.9-7.3-38.4
	c-2.5-7.1-5.7-14.1-9.5-20.9c0-0.1-0.1-0.1-0.1-0.2c12.3-3.4,22.8-10.7,29.9-19.5c9.6-12,13-26.8,12.9-40.9
	c0-12.4-3.2-25.8-13.9-35.3c-8.9-7.9-22.1-11.6-35.1-11.6c-4.2,0-8.3,0.4-12.3,1.1c-7.9,1.5-15.1,4.5-21.2,8.5
	c3.2-15.1,2.8-30.3-0.8-45.4c-2-8.5-5.3-17-10.4-24.6c-2.9-4.3-6.5-8.4-10.6-12c-4.7-4.1-10.3-7.5-16-10.6c-5.7-3.2-11.7-6-18.1-8.2
	c-6.2-2.1-12.8-3.2-19.4-3.6c-1.8-0.1-3.6-0.2-5.4-0.2c-11.6,0-23.2,2.2-33.8,5.8c-6.6,2.2-12.9,4.9-18.9,7.9
	c-5.9,2.9-12.1,5.9-17.3,9.8c-5.1,3.8-8.9,8.8-12.7,13.4c-3.2,3.9-6.4,7.9-9.2,12.1c-3.7,5.4-6.8,11.1-8.6,17.1
	c-2.4,8.2-2.9,16.8-1.6,25.2c0.3,1.6,0.6,3.2,0.9,4.8c-10-4.4-21.2-6.6-32.6-6.6c-5.4,0-10.8,0.5-16.1,1.5
	c-12.2,2.3-23.3,4.4-34.7,8.4c-10.4,3.7-21,9.9-29.1,16.5c-14.7,12.1-22.4,29.2-20.8,46.2c0.9,9,4.1,17.7,9.4,25.6
	c5.4,8.1,13.1,14.9,21.7,20.8c8.9,6.2,18.5,12,28.3,17.3c4.8,2.6,9.8,4.9,15.2,6.7c-7.6,11.4-12.6,23.8-14.8,36.7
	c-2.2,12.8-2.1,26.3,2,38.9c2.2,6.8,5.9,13.3,11.5,18.7c0.6,0.5,1.4,0.8,2.2,0.8c0.6,0,1.3-0.1,1.8-0.4c0.4,0.1,0.8,0.2,1.3,0.2
	c1.6,0,3.3-0.9,3.3-2.6c0-6.3,1.3-12.4,4-18.3c2.5-5.7,5.9-11.3,9.4-16.6c6.6-10.1,14.7-19.8,25.5-27.2c10-7,22.4-12,35.6-13.3
	c2.8-0.3,5.6-0.4,8.4-0.4c11.6,0,23.4,2.4,33.8,6.5c13.5,5.3,25,13.2,34.8,22.4c0,0,0,0.1,0,0.1c-3.4,0.5-6.7,1.8-9.4,4
	c-1.1,0.9-2,2-2.9,3.1c-32.6-16.2-71.6-17.8-100.5-3.4c-24.2,12.1-38.5,34.3-40.1,62.5c-1.7,28.9-7.1,30.8-7.2,30.8
	c-2.4,0.5-9.9-7.8-15.1-18.3l-4.8-9.5l-4.7,9.6c-19.3,39.7-5.5,59.6-2.9,62.9c12.8,20.3,51.8,42.6,89.8,43.7c0.9,0,1.9,0,2.9,0
	c21.3,0,49.9-6.7,71-36.8c16.9-24.1,24.8-47.9,28.1-67.7c3.3,15.8,9.8,33.4,21.6,51.4c17.2,26.1,40.5,31.9,57.8,31.9
	c0.7,0,1.4,0,2.1,0c31-0.9,62.8-20.3,73.3-38C433.4,418.7,444.5,401.6,428.9,367.3z M242.1,261.2c-12.3-4.8-25.6-7.4-38.5-7.4
	c-3.3,0-6.5,0.2-9.7,0.5c-14.7,1.5-29.1,6.9-41.5,15.5c-10.9,7.5-20.3,17.6-28.9,30.7c-3.5,5.3-7.4,11.7-10.4,18.4
	c-0.3,0.6-0.5,1.1-0.7,1.7c-2.9-9.5-3.3-20.3-1.3-32c1.9-11.1,6.3-21.9,13-32l8.9-13.4l-15.4-5.1c-4.2-1.4-8.5-3.3-13.1-5.8
	c-9.7-5.3-18.8-10.8-27-16.6c-8.4-5.9-14.5-11.6-18.5-17.6c-4.1-6.2-6.7-13.1-7.4-20c-1.3-12.8,4.8-26,16.3-35.5
	c7.2-6,16.7-11.3,25.2-14.4c10-3.5,19.8-5.4,31.2-7.6l1.7-0.3c4.5-0.9,9.1-1.3,13.7-1.3c9.6,0,19.1,1.9,27.5,5.6l22.9,10l-5.5-24
	c-0.3-1.4-0.6-2.7-0.8-3.9c-1.1-6.8-0.7-13.5,1.2-19.8c1.2-4.2,3.5-8.6,7-13.7c2.3-3.3,5-6.8,8.6-11.2c0.5-0.6,0.9-1.2,1.4-1.8
	c3-3.7,5.9-7.2,9.1-9.6c4-3,9.3-5.6,14.5-8.2l0.8-0.4c6.1-3,11.8-5.4,17.4-7.3c10-3.4,20.3-5.1,29.7-5.1c1.5,0,3.1,0,4.6,0.1
	c5.8,0.4,11.3,1.4,16.2,3c5,1.7,10.2,4,15.9,7.2c4.6,2.6,9.9,5.7,13.9,9.2c3.2,2.8,6,6,8.4,9.5c3.9,5.8,6.8,12.6,8.7,20.6
	c3.2,13.6,3.5,27.1,0.8,40l-6.4,30l25.8-17.2c4.8-3.2,10.5-5.5,16.5-6.6c3.2-0.6,6.5-0.9,9.9-0.9c10.7,0,20.7,3.2,26.7,8.5
	c6.4,5.7,9.7,14.4,9.7,26.1c0,13.5-3.4,24.6-10.2,33.2c-5.8,7.2-14.3,12.7-23.3,15.2l-17.5,4.7l10.3,14c3.3,6.1,6.1,12.3,8.2,18.3
	c4,11.3,6.2,23,6.6,34.8c0.1,2.3,0.1,4.6,0,6.7c-1.1-1.9-2.2-3.8-3.5-5.7c-6.9-9.8-17-16.9-29.4-20.6c-8.3-2.5-17.3-3.8-26.8-3.8
	c-3.6,0-7.2,0.2-10.9,0.6c-20.8,2.1-39.8,11-52.9,24.2C264.7,272.3,253.7,265.7,242.1,261.2z M268.3,352.8
	c-0.4,20.9-5.6,52.6-28.4,85.1c-19.4,27.6-46,32.8-64.9,32.3c-37.4-1-71.8-23.8-81.3-39.1l-0.2-0.4l-0.3-0.4
	c-0.5-0.6-11.1-13.4,0.1-42.7c5.1,7.7,12.9,16.2,21.2,14.5c9.3-1.9,14.1-14.3,15.5-40.3c1.8-31.2,19.7-46.5,34.3-53.9
	c24.2-12.1,57.6-11.3,86.1,1.1c-3.1,0.3-6.1,0.7-9.2,1.2c-5.6,1-11.2,2.4-16.7,4.1c-10.9,3.6-21.5,8.8-30.6,16.1
	c-4.6,3.7-8.7,7.9-12.2,12.5l-1.3,1.8l-0.6,0.9l-0.6,0.9l-2.3,3.7l-2,3.9c-0.7,1.3-1.1,2.7-1.7,4l-0.8,2c-0.3,0.7-0.4,1.4-0.6,2.1
	c-0.4,1.4-0.8,2.8-1.1,4.2c-0.5,2.8-1.1,5.6-1.2,8.5c-0.6,5.7-0.1,11.4,0.8,16.9c0.5-5.6,0.9-11.1,2.3-16.4c0.5-2.7,1.4-5.3,2.2-7.9
	c1-2.5,1.9-5.1,3.1-7.5c1.1-2.5,2.5-4.7,3.9-7l2.3-3.3c0.2-0.3,0.4-0.6,0.6-0.8l0.6-0.8l1.3-1.6l1.3-1.6l1.4-1.5
	c0.9-1,1.8-2,2.8-2.9c1-0.9,1.9-1.9,2.9-2.8l3.1-2.6c8.5-6.7,18.2-12,28.4-16.4c5.1-2.2,10.4-4,15.7-5.7c3.6-1.1,7.1-2.2,10.8-3.1
	c1.3,0.6,2.7,1.3,4,1.9c-0.1,3.2,0.5,6.5,1.9,9.5c0.6,1.1,1.2,2.2,2,3.2c-4.8,1.3-9.4,3-14,5c-5.3,2.3-10.3,4.9-15.2,7.9
	c-9.8,6-18.7,13.6-25.9,22.8c-3.5,4.6-6.5,9.7-8.9,15l-0.8,2l-0.4,1l-0.4,1l-1.3,4.1l-1,4.3c-0.4,1.4-0.4,2.9-0.7,4.3l-0.3,2.1
	c-0.1,0.7-0.1,1.5-0.1,2.2c0,1.5-0.1,2.9-0.1,4.3c0.2,2.9,0.3,5.7,0.9,8.5c0.8,5.6,2.7,11.1,4.8,16.2c-0.8-5.6-1.8-11-1.8-16.5
	c-0.2-2.7,0.1-5.4,0.2-8.1c0.4-2.7,0.6-5.4,1.2-8c0.5-2.6,1.3-5.2,2.1-7.8l1.4-3.7c0.1-0.3,0.2-0.6,0.4-0.9l0.4-0.9l0.9-1.8l0.9-1.8
	l1-1.8c0.7-1.2,1.3-2.4,2-3.5c0.7-1.1,1.4-2.3,2.2-3.4l2.4-3.3c6.6-8.5,14.8-16,23.6-22.5c4.4-3.3,9.1-6.4,13.9-9.3
	c4.2-2.6,8.5-5,12.9-7.2c1.6,1.9,3.6,3.5,5.9,4.7C267.7,336.1,268.4,343.9,268.3,352.8z M424.6,416.5l-0.2,0.3l-0.2,0.3
	c-9,15.5-38.4,33.3-66.3,34c-15.3,0.4-36.9-4.1-52.6-28.1c-24.1-36.7-24.6-72.6-22.3-92.3c1.6-0.6,3.2-1.4,4.6-2.3
	c0.3-0.2,0.5-0.3,0.7-0.5c3.5,0.5,6.9,1.2,10.3,2.1c4.9,1.3,9.6,2.8,14.1,4.8c9.1,3.9,17.4,9.1,24.4,15.9l1.3,1.2l1.3,1.3
	c0.8,0.9,1.7,1.7,2.5,2.7l2.4,2.8l2.2,2.9c0.8,1,1.4,2,2.1,3c0.6,1,1.4,2,2,3.1c1.2,2.1,2.5,4.2,3.6,6.4c4.5,8.7,7.8,18.1,10.7,27.8
	c-0.3-10.1-2.3-20.2-6.1-29.8c-0.9-2.4-2.1-4.7-3.2-7.1c-0.6-1.2-1.3-2.3-1.9-3.4c-0.6-1.1-1.3-2.3-2.1-3.3
	c-2.8-4.4-6.3-8.4-10.1-12c-7.6-7.3-17-12.7-27-16c-5-1.6-10.1-2.7-15.3-3.2c-3.1-0.3-6.2-0.4-9.3-0.3c1.1-1,2.1-2.1,2.8-3.4
	c1.2-2.3,1.6-4.7,1.8-7.2c0.1-1.5,0.2-3.1,0-4.6c0.3-0.2,0.6-0.3,0.9-0.5c4.5,0.3,8.9,0.9,13.3,1.7c5.2,1,10.3,2.3,15.3,4
	c4.9,1.7,9.7,3.7,14.3,6.2c4.5,2.5,8.8,5.3,12.8,8.6c4,3.2,7.7,6.8,11,10.8c1.7,1.9,3.1,4.1,4.8,6.1l2.1,3.2
	c0.4,0.5,0.7,1.1,1.1,1.6l1,1.7c5.3,8.9,9.3,18.7,12.7,28.8c-0.8-10.6-3.6-21.2-8.3-31.1l-0.9-1.9c-0.3-0.6-0.7-1.2-1-1.8l-2-3.6
	c-1.5-2.3-3-4.6-4.7-6.8c-1.6-2.2-3.6-4.2-5.4-6.3c-2-1.9-4-3.9-6.2-5.6c-4.3-3.5-9-6.5-14.1-9c-5-2.5-10.3-4.3-15.6-5.6
	c-5.4-1.3-10.9-2.1-16.3-2.3c-2.7-0.1-5.5-0.1-8.2,0.1c-1.2,0.1-2.3,0.2-3.5,0.3c22.2-10.2,47.8-11.2,67.3-1.8
	c12.9,6.2,28.6,19.7,30.2,48.2c1.2,22.6,5.1,33.3,12.7,34.8c6.7,1.3,13-6,17.1-12.6C433.7,404.7,424.7,416.4,424.6,416.5z"/>
</svg>
