<?xml version="1.0" encoding="utf-8"?>
<!-- Generator: Adobe Illustrator 24.2.1, SVG Export Plug-In . SVG Version: 6.00 Build 0)  -->
<svg version="1.1" id="Layer_1" xmlns="http://www.w3.org/2000/svg" xmlns:xlink="http://www.w3.org/1999/xlink" x="0px" y="0px"
	 viewBox="0 0 500 500" style="enable-background:new 0 0 500 500;" xml:space="preserve">
<style type="text/css">
	.st0{fill:#FFFFFF;filter:url(#Adobe_OpacityMaskFilter);}
	.st1{mask:url(#path-1-outside-1_2_);fill:none;stroke:#000000;stroke-width:0.4;}
</style>
<path d="M428.9,367.29l-3.77-8.29l-3.87,8.25c-4.2,8.94-10.29,16.26-12.26,15.99c-0.04-0.01-4.59-1.86-5.93-27.1
	c-1.35-25.39-13.73-45.01-34.86-55.21c-22.26-10.75-51.53-9.45-76.43,2.62c-0.08-0.12-0.15-0.25-0.23-0.37
	c-2.06-2.89-4.89-5.13-8.19-6.54c-1.44-0.61-2.94-1.05-4.45-1.34c10.72-14.38,29.68-24.28,50.25-26.41c3.15-0.33,6.34-0.5,9.52-0.5
	c7.85,0,15.71,1.02,23.04,3.25c9.76,2.96,17.62,8.53,22.76,15.85c6.22,8.85,8.92,19.18,12.37,28.89c0.46,1.3,1.74,1.87,3.03,1.87
	c1.47,0,2.97-0.72,3.34-1.93c0-0.01,0.01-0.01,0.01-0.02c6.92-11.56,8.13-24.62,7.71-37.28c-0.43-12.98-2.89-25.95-7.29-38.43
	c-2.52-7.15-5.71-14.12-9.45-20.9c-0.04-0.07-0.1-0.12-0.15-0.19c12.34-3.36,22.81-10.66,29.88-19.46
	c9.62-11.99,12.97-26.78,12.9-40.89c-0.05-12.43-3.22-25.81-13.91-35.26c-8.9-7.87-22.06-11.63-35.1-11.63
	c-4.16,0-8.29,0.38-12.28,1.14c-7.87,1.49-15.09,4.47-21.19,8.54c3.19-15.05,2.76-30.3-0.83-45.37
	c-2.04-8.54-5.29-16.97-10.44-24.63c-2.91-4.33-6.47-8.41-10.64-11.99c-4.72-4.08-10.33-7.46-16-10.63
	c-5.71-3.19-11.68-6.03-18.1-8.17c-6.19-2.07-12.77-3.22-19.44-3.65c-1.8-0.11-3.6-0.17-5.4-0.17c-11.58,0-23.17,2.24-33.81,5.82
	c-6.57,2.21-12.86,4.92-18.94,7.92c-5.93,2.92-12.14,5.93-17.26,9.76c-5.09,3.81-8.88,8.78-12.71,13.4
	c-3.24,3.92-6.38,7.92-9.23,12.05c-3.72,5.41-6.83,11.09-8.63,17.13c-2.45,8.22-2.89,16.79-1.55,25.17
	c0.25,1.59,0.57,3.17,0.93,4.75c-10.01-4.36-21.22-6.62-32.58-6.62c-5.37,0-10.76,0.51-16.07,1.53
	c-12.17,2.34-23.31,4.39-34.74,8.44c-10.44,3.7-21.01,9.89-29.06,16.53c-14.7,12.12-22.44,29.24-20.76,46.19
	c0.89,8.96,4.08,17.72,9.4,25.62c5.42,8.06,13.13,14.87,21.67,20.82c8.9,6.2,18.49,12.01,28.25,17.3c4.77,2.58,9.83,4.92,15.15,6.68
	c-7.55,11.4-12.62,23.85-14.82,36.65c-2.2,12.81-2.07,26.29,1.98,38.86c2.19,6.83,5.86,13.28,11.49,18.7
	c0.55,0.53,1.37,0.76,2.2,0.76c0.62,0,1.25-0.13,1.78-0.38c0.4,0.11,0.83,0.18,1.26,0.18c1.64,0,3.29-0.86,3.29-2.57
	c0.01-6.25,1.35-12.38,3.96-18.26c2.53-5.73,5.92-11.26,9.42-16.64c6.6-10.15,14.68-19.75,25.5-27.24
	c10.03-6.95,22.41-11.96,35.58-13.3c2.79-0.29,5.6-0.42,8.41-0.42c11.65,0,23.36,2.36,33.8,6.47c13.5,5.3,24.99,13.22,34.78,22.35
	c0.01,0.03,0.02,0.06,0.03,0.08c-3.4,0.46-6.68,1.78-9.44,4.01c-1.1,0.94-2.05,2-2.86,3.14c-32.62-16.2-71.57-17.81-100.46-3.38
	c-24.24,12.11-38.48,34.3-40.08,62.48c-1.65,28.88-7.11,30.78-7.16,30.79c-2.44,0.52-9.87-7.84-15.11-18.26l-4.79-9.52l-4.66,9.58
	c-19.29,39.7-5.53,59.63-2.91,62.88c12.82,20.3,51.78,42.62,89.78,43.69c0.95,0.03,1.91,0.04,2.89,0.04
	c21.28,0,49.89-6.69,70.98-36.77c16.93-24.14,24.8-47.9,28.14-67.68c3.34,15.83,9.83,33.43,21.59,51.35
	c17.16,26.13,40.46,31.92,57.75,31.92c0.72,0,1.44-0.01,2.14-0.03c31.02-0.85,62.81-20.26,73.25-37.95
	C433.36,418.71,444.5,401.61,428.9,367.29z M242.11,261.18c-12.25-4.8-25.55-7.35-38.47-7.35c-3.27,0-6.53,0.16-9.71,0.49
	c-14.71,1.5-29.07,6.86-41.53,15.5c-10.9,7.55-20.34,17.59-28.86,30.69c-3.46,5.33-7.41,11.68-10.36,18.38
	c-0.25,0.57-0.49,1.15-0.72,1.71c-2.86-9.5-3.26-20.26-1.25-32.02c1.91-11.11,6.28-21.86,12.96-31.96l8.86-13.38l-15.38-5.12
	c-4.17-1.38-8.46-3.28-13.11-5.8c-9.74-5.27-18.85-10.84-27.04-16.56c-8.41-5.86-14.45-11.6-18.45-17.55
	c-4.14-6.16-6.69-13.06-7.37-19.98c-1.26-12.75,4.83-26.03,16.32-35.5c7.23-5.96,16.66-11.33,25.24-14.37
	c10.01-3.54,19.84-5.43,31.24-7.62l1.65-0.32c4.47-0.86,9.07-1.29,13.66-1.29c9.64,0,19.14,1.92,27.46,5.56l22.9,9.99l-5.5-24.04
	c-0.33-1.43-0.58-2.72-0.78-3.93c-1.08-6.81-0.68-13.46,1.2-19.78c1.24-4.16,3.52-8.63,6.97-13.67c2.26-3.28,4.98-6.84,8.56-11.16
	c0.48-0.58,0.95-1.17,1.44-1.76c3.02-3.7,5.88-7.19,9.12-9.61c3.97-2.97,9.33-5.62,14.52-8.18l0.76-0.37
	c6.1-3.02,11.78-5.39,17.37-7.27c10.02-3.38,20.29-5.15,29.73-5.15c1.54,0,3.1,0.05,4.6,0.14c5.83,0.36,11.29,1.37,16.2,3.02
	c5.03,1.67,10.24,4.03,15.92,7.2c4.61,2.57,9.87,5.68,13.92,9.17c3.21,2.77,6.05,5.97,8.43,9.5c3.93,5.85,6.76,12.59,8.68,20.62
	c3.24,13.62,3.51,27.08,0.77,40.01l-6.36,30l25.77-17.23c4.8-3.21,10.5-5.5,16.48-6.63c3.21-0.61,6.54-0.91,9.91-0.91
	c10.72,0,20.69,3.16,26.68,8.46c6.41,5.67,9.69,14.45,9.73,26.09c0.05,13.5-3.38,24.65-10.2,33.16
	c-5.76,7.19-14.27,12.72-23.34,15.19l-17.45,4.74l10.27,14.01c3.34,6.13,6.1,12.3,8.23,18.33c3.99,11.31,6.21,23.01,6.6,34.77
	c0.07,2.34,0.08,4.58,0.02,6.69c-1.06-1.91-2.23-3.8-3.53-5.66c-6.85-9.75-17.02-16.9-29.41-20.65c-8.31-2.52-17.32-3.8-26.76-3.8
	c-3.59,0-7.23,0.19-10.85,0.57c-20.75,2.15-39.81,10.99-52.91,24.22C264.69,272.3,253.69,265.72,242.11,261.18z M268.26,352.8
	c-0.38,20.88-5.63,52.62-28.45,85.15c-19.39,27.64-46.01,32.8-64.94,32.26c-37.45-1.05-71.84-23.76-81.3-39.06l-0.2-0.35l-0.33-0.36
	c-0.5-0.58-11.1-13.41,0.08-42.71c5.14,7.66,12.9,16.2,21.24,14.54c9.26-1.86,14.06-14.29,15.54-40.32
	c1.77-31.21,19.66-46.5,34.35-53.85c24.17-12.07,57.6-11.26,86.09,1.15c-3.08,0.29-6.14,0.71-9.2,1.22
	c-5.65,0.97-11.23,2.35-16.71,4.14c-10.93,3.58-21.48,8.83-30.65,16.08c-4.56,3.66-8.69,7.86-12.23,12.51l-1.3,1.77l-0.65,0.88
	l-0.59,0.93l-2.3,3.73l-1.96,3.9c-0.69,1.28-1.13,2.68-1.68,4.02l-0.78,2.02c-0.27,0.67-0.42,1.38-0.63,2.08
	c-0.39,1.39-0.81,2.77-1.14,4.17c-0.48,2.84-1.12,5.63-1.24,8.49c-0.56,5.68-0.09,11.36,0.78,16.88c0.53-5.6,0.91-11.11,2.29-16.43
	c0.48-2.7,1.44-5.26,2.17-7.86c1.02-2.51,1.85-5.08,3.12-7.46c1.08-2.46,2.54-4.73,3.87-7.04l2.3-3.29
	c0.19-0.28,0.38-0.56,0.57-0.83l0.63-0.78l1.27-1.56l1.27-1.56l1.38-1.48c0.92-0.98,1.78-2,2.8-2.89c0.99-0.92,1.92-1.88,2.94-2.77
	l3.11-2.6c8.49-6.72,18.19-12.05,28.41-16.35c5.11-2.16,10.37-4.04,15.71-5.74c3.55-1.15,7.14-2.18,10.76-3.12
	c1.33,0.62,2.66,1.26,3.97,1.93c-0.15,3.24,0.48,6.53,1.94,9.49c0.56,1.13,1.24,2.18,2.03,3.17c-4.79,1.27-9.43,3.04-13.99,4.97
	c-5.25,2.26-10.34,4.92-15.23,7.93c-9.75,6.04-18.73,13.6-25.88,22.79c-3.54,4.62-6.54,9.67-8.86,15.01l-0.84,2.01l-0.42,1.01
	l-0.35,1.03l-1.33,4.15l-0.97,4.25c-0.37,1.4-0.45,2.86-0.66,4.3l-0.27,2.15c-0.09,0.71-0.06,1.45-0.1,2.16
	c-0.04,1.45-0.12,2.88-0.1,4.32c0.21,2.87,0.27,5.73,0.85,8.54c0.84,5.64,2.66,11.06,4.83,16.21c-0.83-5.56-1.81-11-1.75-16.49
	c-0.18-2.73,0.13-5.44,0.21-8.14c0.38-2.67,0.57-5.37,1.23-7.97c0.46-2.64,1.32-5.18,2.06-7.75l1.43-3.74
	c0.12-0.31,0.23-0.63,0.36-0.93l0.43-0.91l0.85-1.82l0.85-1.81l0.98-1.76c0.66-1.17,1.25-2.36,2.03-3.47
	c0.73-1.13,1.41-2.28,2.19-3.38l2.38-3.25c6.63-8.52,14.75-15.97,23.64-22.52c4.44-3.28,9.09-6.35,13.87-9.25
	c4.19-2.56,8.49-4.96,12.9-7.24c1.63,1.91,3.65,3.51,5.91,4.67C267.74,336.1,268.42,343.87,268.26,352.8z M424.59,416.46l-0.24,0.29
	l-0.19,0.33c-8.97,15.49-38.41,33.27-66.34,34.04c-15.32,0.4-36.85-4.12-52.6-28.11c-24.08-36.69-24.57-72.62-22.28-92.31
	c1.63-0.59,3.18-1.35,4.61-2.28c0.25-0.16,0.49-0.33,0.73-0.51c3.49,0.53,6.92,1.23,10.29,2.12c4.86,1.25,9.59,2.83,14.12,4.78
	c9.07,3.87,17.42,9.15,24.38,15.87l1.32,1.24l1.25,1.32c0.81,0.9,1.71,1.71,2.46,2.68l2.35,2.77l2.18,2.91
	c0.76,0.95,1.42,1.97,2.08,3c0.65,1.03,1.37,2,1.98,3.07c1.2,2.12,2.51,4.19,3.56,6.4c4.5,8.73,7.82,18.13,10.67,27.83
	c-0.26-10.11-2.32-20.24-6.15-29.84c-0.89-2.43-2.09-4.73-3.22-7.06c-0.57-1.17-1.27-2.27-1.92-3.4c-0.65-1.13-1.31-2.25-2.08-3.31
	c-2.83-4.4-6.32-8.39-10.11-12.05c-7.6-7.33-17.04-12.73-27.01-15.97c-5-1.61-10.14-2.71-15.32-3.21c-3.11-0.29-6.23-0.43-9.33-0.33
	c1.11-0.98,2.08-2.11,2.77-3.42c1.19-2.26,1.61-4.71,1.84-7.22c0.14-1.54,0.16-3.09,0.02-4.61c0.3-0.16,0.61-0.31,0.91-0.45
	c4.49,0.31,8.92,0.86,13.27,1.7c5.22,0.98,10.34,2.26,15.29,3.97c4.94,1.69,9.74,3.73,14.29,6.2c4.54,2.47,8.83,5.33,12.81,8.57
	c4,3.2,7.67,6.82,10.95,10.76c1.74,1.9,3.15,4.06,4.76,6.08l2.13,3.23c0.36,0.54,0.72,1.07,1.07,1.62l0.97,1.68
	c5.28,8.92,9.27,18.68,12.67,28.81c-0.83-10.64-3.6-21.21-8.29-31.08l-0.87-1.86c-0.32-0.61-0.66-1.2-0.99-1.8l-2.03-3.58
	c-1.53-2.28-2.97-4.64-4.74-6.77c-1.65-2.23-3.56-4.23-5.43-6.29c-2-1.92-3.99-3.87-6.18-5.6c-4.34-3.5-9.05-6.54-14.06-8.98
	c-5.01-2.45-10.27-4.32-15.64-5.65c-5.37-1.33-10.86-2.1-16.34-2.32c-2.74-0.1-5.48-0.1-8.21,0.08c-1.18,0.08-2.34,0.19-3.52,0.32
	c22.2-10.22,47.8-11.17,67.27-1.77c12.92,6.24,28.64,19.67,30.16,48.22c1.21,22.61,5.13,33.34,12.74,34.77
	c6.73,1.29,12.98-6.04,17.1-12.61C433.74,404.69,424.66,416.37,424.59,416.46z"/>
<defs>
	<filter id="Adobe_OpacityMaskFilter" filterUnits="userSpaceOnUse" x="38.49" y="9.22" width="398.59" height="463.6">
		<feColorMatrix  type="matrix" values="1 0 0 0 0  0 1 0 0 0  0 0 1 0 0  0 0 0 1 0"/>
	</filter>
</defs>
<mask maskUnits="userSpaceOnUse" x="38.49" y="9.22" width="398.59" height="463.6" id="path-1-outside-1_2_">
	<rect x="30.56" y="1.29" class="st0" width="414.44" height="479.46"/>
	<path d="M428.71,359.35l-3.77-8.29l-3.87,8.25c-4.2,8.94-10.29,16.26-12.26,15.99c-0.04-0.01-4.59-1.86-5.93-27.1
		c-1.35-25.39-13.73-45.01-34.86-55.21c-22.26-10.75-51.53-9.45-76.43,2.62c-0.08-0.12-0.15-0.25-0.23-0.37
		c-2.06-2.89-4.89-5.13-8.19-6.54c-1.44-0.61-2.94-1.05-4.45-1.34c10.72-14.38,29.68-24.28,50.25-26.41c3.15-0.33,6.34-0.5,9.52-0.5
		c7.85,0,15.71,1.02,23.04,3.25c9.76,2.96,17.62,8.53,22.76,15.85c6.22,8.85,8.92,19.18,12.37,28.89c0.46,1.3,1.74,1.87,3.03,1.87
		c1.47,0,2.97-0.72,3.34-1.93c0-0.01,0.01-0.01,0.01-0.02c6.92-11.56,8.13-24.62,7.71-37.28c-0.43-12.98-2.89-25.95-7.29-38.43
		c-2.52-7.15-5.71-14.12-9.45-20.9c-0.04-0.07-0.1-0.12-0.15-0.19c12.34-3.36,22.81-10.66,29.88-19.46
		c9.62-11.99,12.97-26.78,12.9-40.89c-0.05-12.43-3.22-25.81-13.91-35.26c-8.9-7.87-22.06-11.63-35.1-11.63
		c-4.16,0-8.29,0.38-12.28,1.14c-7.87,1.49-15.09,4.47-21.19,8.54c3.19-15.05,2.76-30.3-0.83-45.37
		c-2.04-8.54-5.29-16.97-10.44-24.63c-2.91-4.33-6.47-8.41-10.64-11.99c-4.72-4.08-10.33-7.46-16-10.63
		c-5.71-3.19-11.68-6.03-18.1-8.17c-6.19-2.07-12.77-3.22-19.44-3.65c-1.8-0.11-3.6-0.17-5.4-0.17c-11.58,0-23.17,2.24-33.81,5.82
		c-6.57,2.21-12.86,4.92-18.94,7.92c-5.93,2.92-12.14,5.93-17.26,9.76c-5.09,3.81-8.88,8.78-12.71,13.4
		c-3.24,3.92-6.38,7.92-9.23,12.05c-3.72,5.41-6.83,11.09-8.63,17.13c-2.45,8.22-2.89,16.79-1.55,25.17
		c0.25,1.59,0.57,3.17,0.93,4.75c-10.01-4.36-21.22-6.62-32.58-6.62c-5.37,0-10.76,0.51-16.07,1.53
		c-12.17,2.34-23.31,4.39-34.74,8.44c-10.44,3.7-21.01,9.89-29.06,16.53c-14.7,12.12-22.44,29.24-20.76,46.19
		c0.89,8.96,4.08,17.72,9.4,25.62c5.42,8.06,13.13,14.87,21.67,20.82c8.9,6.2,18.49,12.01,28.25,17.3
		c4.77,2.58,9.83,4.92,15.15,6.68c-7.55,11.4-12.62,23.85-14.82,36.65c-2.2,12.81-2.07,26.29,1.98,38.86
		c2.19,6.83,5.86,13.28,11.49,18.7c0.55,0.53,1.37,0.76,2.2,0.76c0.62,0,1.25-0.13,1.78-0.38c0.4,0.11,0.83,0.18,1.26,0.18
		c1.64,0,3.29-0.86,3.29-2.57c0.01-6.25,1.35-12.38,3.96-18.26c2.53-5.73,5.92-11.26,9.42-16.64c6.6-10.15,14.68-19.75,25.5-27.24
		c10.03-6.95,22.41-11.96,35.58-13.3c2.79-0.29,5.6-0.42,8.41-0.42c11.65,0,23.36,2.36,33.8,6.47c13.5,5.3,24.99,13.22,34.78,22.35
		c0.01,0.03,0.02,0.06,0.03,0.08c-3.4,0.46-6.68,1.78-9.44,4.01c-1.1,0.94-2.05,2-2.86,3.14c-32.62-16.2-71.57-17.81-100.46-3.38
		c-24.24,12.11-38.48,34.3-40.08,62.48c-1.65,28.88-7.11,30.78-7.16,30.79c-2.44,0.52-9.87-7.84-15.11-18.26l-4.79-9.52L87.48,366
		c-19.29,39.7-5.53,59.63-2.91,62.88c12.82,20.3,51.78,42.62,89.78,43.69c0.95,0.03,1.91,0.04,2.89,0.04
		c21.28,0,49.89-6.69,70.98-36.77c16.93-24.14,24.8-47.9,28.14-67.68c3.34,15.83,9.83,33.43,21.59,51.35
		c17.16,26.13,40.46,31.92,57.75,31.92c0.72,0,1.44-0.01,2.14-0.03c31.02-0.85,62.81-20.26,73.25-37.95
		C433.16,410.77,444.31,393.67,428.71,359.35z M241.91,253.24c-12.25-4.8-25.55-7.35-38.47-7.35c-3.27,0-6.53,0.16-9.71,0.49
		c-14.71,1.5-29.07,6.86-41.53,15.5c-10.9,7.55-20.34,17.59-28.86,30.69c-3.46,5.33-7.41,11.68-10.36,18.38
		c-0.25,0.57-0.49,1.15-0.72,1.71c-2.86-9.5-3.26-20.26-1.25-32.02c1.91-11.11,6.28-21.86,12.96-31.96l8.86-13.38l-15.38-5.12
		c-4.17-1.38-8.46-3.28-13.11-5.8c-9.74-5.27-18.85-10.84-27.04-16.56c-8.41-5.86-14.45-11.6-18.45-17.55
		c-4.14-6.16-6.69-13.06-7.37-19.98c-1.26-12.75,4.83-26.03,16.32-35.5c7.23-5.96,16.66-11.33,25.24-14.37
		c10.01-3.54,19.84-5.43,31.24-7.62l1.65-0.32c4.47-0.86,9.07-1.29,13.66-1.29c9.64,0,19.14,1.92,27.46,5.56l22.9,9.99l-5.5-24.04
		c-0.33-1.43-0.58-2.72-0.78-3.93c-1.08-6.81-0.68-13.46,1.2-19.78c1.24-4.16,3.52-8.63,6.97-13.67c2.26-3.28,4.98-6.84,8.56-11.16
		c0.48-0.58,0.95-1.17,1.44-1.76c3.02-3.7,5.88-7.19,9.12-9.61c3.97-2.97,9.33-5.62,14.52-8.18l0.76-0.37
		c6.1-3.02,11.78-5.39,17.37-7.27c10.02-3.38,20.29-5.15,29.73-5.15c1.54,0,3.1,0.05,4.6,0.14c5.83,0.36,11.29,1.37,16.2,3.02
		c5.03,1.67,10.24,4.03,15.92,7.2c4.61,2.57,9.87,5.68,13.92,9.17c3.21,2.77,6.05,5.97,8.43,9.5c3.93,5.85,6.76,12.59,8.68,20.62
		c3.24,13.62,3.51,27.08,0.77,40.01l-6.36,30l25.77-17.23c4.8-3.21,10.5-5.5,16.48-6.63c3.21-0.61,6.54-0.91,9.91-0.91
		c10.72,0,20.69,3.16,26.68,8.46c6.41,5.67,9.69,14.45,9.73,26.09c0.05,13.5-3.38,24.65-10.2,33.16
		c-5.76,7.19-14.27,12.72-23.34,15.19l-17.45,4.74l10.27,14.01c3.34,6.13,6.1,12.3,8.23,18.33c3.99,11.31,6.22,23.01,6.6,34.77
		c0.07,2.34,0.08,4.58,0.02,6.69c-1.06-1.91-2.23-3.8-3.53-5.66c-6.85-9.75-17.02-16.9-29.41-20.65c-8.31-2.52-17.32-3.8-26.76-3.8
		c-3.59,0-7.23,0.19-10.85,0.57c-20.75,2.15-39.81,10.99-52.91,24.22C264.49,264.36,253.49,257.78,241.91,253.24z M268.06,344.86
		c-0.38,20.88-5.63,52.62-28.45,85.15c-19.39,27.64-46.01,32.8-64.94,32.26c-37.45-1.05-71.84-23.76-81.3-39.06l-0.2-0.35
		l-0.33-0.36c-0.5-0.58-11.1-13.41,0.08-42.71c5.14,7.66,12.9,16.2,21.24,14.54c9.26-1.86,14.06-14.29,15.54-40.32
		c1.77-31.21,19.66-46.5,34.35-53.85c24.17-12.07,57.6-11.26,86.09,1.15c-3.08,0.29-6.14,0.71-9.2,1.22
		c-5.65,0.97-11.23,2.35-16.71,4.14c-10.93,3.58-21.48,8.83-30.65,16.08c-4.56,3.66-8.69,7.86-12.23,12.51l-1.3,1.77l-0.65,0.88
		l-0.59,0.93l-2.3,3.73l-1.96,3.9c-0.69,1.28-1.13,2.68-1.68,4.02l-0.78,2.02c-0.27,0.67-0.42,1.38-0.63,2.08
		c-0.39,1.39-0.81,2.77-1.14,4.17c-0.48,2.84-1.12,5.63-1.24,8.49c-0.56,5.68-0.09,11.36,0.78,16.88c0.53-5.6,0.91-11.11,2.29-16.43
		c0.48-2.7,1.44-5.26,2.17-7.86c1.02-2.51,1.85-5.08,3.12-7.46c1.08-2.46,2.54-4.73,3.87-7.04l2.3-3.29
		c0.19-0.28,0.38-0.56,0.57-0.83l0.63-0.78l1.27-1.56l1.27-1.56l1.38-1.48c0.92-0.98,1.78-2,2.8-2.89c0.99-0.92,1.92-1.88,2.94-2.77
		l3.11-2.6c8.49-6.72,18.19-12.05,28.41-16.35c5.11-2.16,10.37-4.04,15.71-5.74c3.55-1.15,7.14-2.18,10.76-3.12
		c1.33,0.62,2.66,1.26,3.97,1.93c-0.15,3.24,0.48,6.53,1.94,9.49c0.56,1.13,1.24,2.18,2.03,3.17c-4.79,1.27-9.43,3.04-13.99,4.97
		c-5.25,2.26-10.34,4.92-15.23,7.93c-9.75,6.04-18.73,13.6-25.88,22.79c-3.54,4.62-6.54,9.67-8.86,15.01l-0.84,2.01l-0.42,1.01
		l-0.35,1.03l-1.33,4.15l-0.97,4.25c-0.37,1.4-0.45,2.86-0.66,4.3l-0.27,2.15c-0.09,0.71-0.06,1.45-0.1,2.16
		c-0.04,1.45-0.12,2.88-0.1,4.32c0.21,2.87,0.27,5.73,0.85,8.54c0.84,5.64,2.66,11.06,4.83,16.21c-0.83-5.56-1.81-11-1.75-16.49
		c-0.18-2.73,0.13-5.44,0.21-8.14c0.38-2.67,0.57-5.37,1.23-7.97c0.46-2.64,1.32-5.18,2.06-7.75l1.43-3.74
		c0.12-0.31,0.23-0.63,0.36-0.93l0.43-0.91l0.85-1.82l0.85-1.81l0.98-1.76c0.66-1.17,1.25-2.36,2.03-3.47
		c0.73-1.13,1.41-2.28,2.19-3.38l2.38-3.25c6.63-8.52,14.75-15.97,23.64-22.52c4.44-3.28,9.09-6.35,13.87-9.25
		c4.19-2.56,8.49-4.96,12.9-7.24c1.63,1.91,3.65,3.51,5.91,4.67C267.54,328.16,268.22,335.93,268.06,344.86z M424.39,408.52
		l-0.24,0.29l-0.19,0.33c-8.97,15.49-38.41,33.27-66.34,34.04c-15.32,0.4-36.85-4.12-52.6-28.11
		c-24.08-36.69-24.57-72.62-22.28-92.31c1.63-0.59,3.18-1.35,4.61-2.28c0.25-0.16,0.49-0.33,0.73-0.51
		c3.49,0.53,6.92,1.23,10.29,2.12c4.86,1.25,9.59,2.83,14.12,4.78c9.07,3.87,17.42,9.15,24.38,15.87l1.32,1.24l1.25,1.32
		c0.81,0.9,1.71,1.71,2.46,2.68l2.35,2.77l2.18,2.91c0.76,0.95,1.42,1.97,2.08,3c0.65,1.03,1.37,2,1.98,3.07
		c1.2,2.12,2.51,4.19,3.56,6.4c4.5,8.73,7.82,18.13,10.67,27.83c-0.26-10.11-2.32-20.24-6.15-29.84c-0.89-2.43-2.09-4.73-3.22-7.06
		c-0.57-1.17-1.27-2.27-1.92-3.4c-0.65-1.13-1.31-2.25-2.08-3.31c-2.83-4.4-6.32-8.39-10.11-12.05
		c-7.6-7.33-17.04-12.73-27.01-15.97c-5-1.61-10.14-2.71-15.32-3.21c-3.11-0.29-6.23-0.43-9.33-0.33c1.11-0.98,2.08-2.11,2.77-3.42
		c1.19-2.26,1.61-4.71,1.84-7.22c0.14-1.54,0.16-3.09,0.02-4.61c0.3-0.16,0.61-0.31,0.91-0.45c4.49,0.31,8.92,0.86,13.27,1.7
		c5.22,0.98,10.34,2.26,15.29,3.97c4.94,1.69,9.74,3.73,14.29,6.2c4.54,2.47,8.83,5.33,12.81,8.57c4,3.2,7.67,6.82,10.95,10.76
		c1.74,1.9,3.15,4.06,4.76,6.08l2.13,3.23c0.36,0.54,0.72,1.07,1.07,1.62l0.97,1.68c5.28,8.92,9.27,18.68,12.67,28.81
		c-0.83-10.64-3.6-21.21-8.29-31.08l-0.87-1.86c-0.32-0.61-0.66-1.2-0.99-1.8l-2.03-3.58c-1.53-2.28-2.97-4.64-4.74-6.77
		c-1.65-2.23-3.56-4.23-5.43-6.29c-2-1.92-3.99-3.87-6.18-5.6c-4.34-3.5-9.05-6.54-14.06-8.98c-5.01-2.45-10.27-4.32-15.64-5.65
		c-5.37-1.33-10.86-2.1-16.34-2.32c-2.74-0.1-5.48-0.1-8.21,0.08c-1.18,0.08-2.34,0.19-3.52,0.32c22.2-10.22,47.8-11.17,67.27-1.77
		c12.92,6.24,28.64,19.67,30.16,48.22c1.21,22.61,5.13,33.34,12.74,34.77c6.73,1.29,12.98-6.04,17.1-12.61
		C433.55,396.74,424.47,408.42,424.39,408.52z"/>
</mask>
<path class="st1" d="M428.71,359.35l-3.77-8.29l-3.87,8.25c-4.2,8.94-10.29,16.26-12.26,15.99c-0.04-0.01-4.59-1.86-5.93-27.1
	c-1.35-25.39-13.73-45.01-34.86-55.21c-22.26-10.75-51.53-9.45-76.43,2.62c-0.08-0.12-0.15-0.25-0.23-0.37
	c-2.06-2.89-4.89-5.13-8.19-6.54c-1.44-0.61-2.94-1.05-4.45-1.34c10.72-14.38,29.68-24.28,50.25-26.41c3.15-0.33,6.34-0.5,9.52-0.5
	c7.85,0,15.71,1.02,23.04,3.25c9.76,2.96,17.62,8.53,22.76,15.85c6.22,8.85,8.92,19.18,12.37,28.89c0.46,1.3,1.74,1.87,3.03,1.87
	c1.47,0,2.97-0.72,3.34-1.93c0-0.01,0.01-0.01,0.01-0.02c6.92-11.56,8.13-24.62,7.71-37.28c-0.43-12.98-2.89-25.95-7.29-38.43
	c-2.52-7.15-5.71-14.12-9.45-20.9c-0.04-0.07-0.1-0.12-0.15-0.19c12.34-3.36,22.81-10.66,29.88-19.46
	c9.62-11.99,12.97-26.78,12.9-40.89c-0.05-12.43-3.22-25.81-13.91-35.26c-8.9-7.87-22.06-11.63-35.1-11.63
	c-4.16,0-8.29,0.38-12.28,1.14c-7.87,1.49-15.09,4.47-21.19,8.54c3.19-15.05,2.76-30.3-0.83-45.37
	c-2.04-8.54-5.29-16.97-10.44-24.63c-2.91-4.33-6.47-8.41-10.64-11.99c-4.72-4.08-10.33-7.46-16-10.63
	c-5.71-3.19-11.68-6.03-18.1-8.17c-6.19-2.07-12.77-3.22-19.44-3.65c-1.8-0.11-3.6-0.17-5.4-0.17c-11.58,0-23.17,2.24-33.81,5.82
	c-6.57,2.21-12.86,4.92-18.94,7.92c-5.93,2.92-12.14,5.93-17.26,9.76c-5.09,3.81-8.88,8.78-12.71,13.4
	c-3.24,3.92-6.38,7.92-9.23,12.05c-3.72,5.41-6.83,11.09-8.63,17.13c-2.45,8.22-2.89,16.79-1.55,25.17
	c0.25,1.59,0.57,3.17,0.93,4.75c-10.01-4.36-21.22-6.62-32.58-6.62c-5.37,0-10.76,0.51-16.07,1.53
	c-12.17,2.34-23.31,4.39-34.74,8.44c-10.44,3.7-21.01,9.89-29.06,16.53c-14.7,12.12-22.44,29.24-20.76,46.19
	c0.89,8.96,4.08,17.72,9.4,25.62c5.42,8.06,13.13,14.87,21.67,20.82c8.9,6.2,18.49,12.01,28.25,17.3c4.77,2.58,9.83,4.92,15.15,6.68
	c-7.55,11.4-12.62,23.85-14.82,36.65c-2.2,12.81-2.07,26.29,1.98,38.86c2.19,6.83,5.86,13.28,11.49,18.7
	c0.55,0.53,1.37,0.76,2.2,0.76c0.62,0,1.25-0.13,1.78-0.38c0.4,0.11,0.83,0.18,1.26,0.18c1.64,0,3.29-0.86,3.29-2.57
	c0.01-6.25,1.35-12.38,3.96-18.26c2.53-5.73,5.92-11.26,9.42-16.64c6.6-10.15,14.68-19.75,25.5-27.24
	c10.03-6.95,22.41-11.96,35.58-13.3c2.79-0.29,5.6-0.42,8.41-0.42c11.65,0,23.36,2.36,33.8,6.47c13.5,5.3,24.99,13.22,34.78,22.35
	c0.01,0.03,0.02,0.06,0.03,0.08c-3.4,0.46-6.68,1.78-9.44,4.01c-1.1,0.94-2.05,2-2.86,3.14c-32.62-16.2-71.57-17.81-100.46-3.38
	c-24.24,12.11-38.48,34.3-40.08,62.48c-1.65,28.88-7.11,30.78-7.16,30.79c-2.44,0.52-9.87-7.84-15.11-18.26l-4.79-9.52L87.48,366
	c-19.29,39.7-5.53,59.63-2.91,62.88c12.82,20.3,51.78,42.62,89.78,43.69c0.95,0.03,1.91,0.04,2.89,0.04
	c21.28,0,49.89-6.69,70.98-36.77c16.93-24.14,24.8-47.9,28.14-67.68c3.34,15.83,9.83,33.43,21.59,51.35
	c17.16,26.13,40.46,31.92,57.75,31.92c0.72,0,1.44-0.01,2.14-0.03c31.02-0.85,62.81-20.26,73.25-37.95
	C433.16,410.77,444.31,393.67,428.71,359.35z M241.91,253.24c-12.25-4.8-25.55-7.35-38.47-7.35c-3.27,0-6.53,0.16-9.71,0.49
	c-14.71,1.5-29.07,6.86-41.53,15.5c-10.9,7.55-20.34,17.59-28.86,30.69c-3.46,5.33-7.41,11.68-10.36,18.38
	c-0.25,0.57-0.49,1.15-0.72,1.71c-2.86-9.5-3.26-20.26-1.25-32.02c1.91-11.11,6.28-21.86,12.96-31.96l8.86-13.38l-15.38-5.12
	c-4.17-1.38-8.46-3.28-13.11-5.8c-9.74-5.27-18.85-10.84-27.04-16.56c-8.41-5.86-14.45-11.6-18.45-17.55
	c-4.14-6.16-6.69-13.06-7.37-19.98c-1.26-12.75,4.83-26.03,16.32-35.5c7.23-5.96,16.66-11.33,25.24-14.37
	c10.01-3.54,19.84-5.43,31.24-7.62l1.65-0.32c4.47-0.86,9.07-1.29,13.66-1.29c9.64,0,19.14,1.92,27.46,5.56l22.9,9.99l-5.5-24.04
	c-0.33-1.43-0.58-2.72-0.78-3.93c-1.08-6.81-0.68-13.46,1.2-19.78c1.24-4.16,3.52-8.63,6.97-13.67c2.26-3.28,4.98-6.84,8.56-11.16
	c0.48-0.58,0.95-1.17,1.44-1.76c3.02-3.7,5.88-7.19,9.12-9.61c3.97-2.97,9.33-5.62,14.52-8.18l0.76-0.37
	c6.1-3.02,11.78-5.39,17.37-7.27c10.02-3.38,20.29-5.15,29.73-5.15c1.54,0,3.1,0.05,4.6,0.14c5.83,0.36,11.29,1.37,16.2,3.02
	c5.03,1.67,10.24,4.03,15.92,7.2c4.61,2.57,9.87,5.68,13.92,9.17c3.21,2.77,6.05,5.97,8.43,9.5c3.93,5.85,6.76,12.59,8.68,20.62
	c3.24,13.62,3.51,27.08,0.77,40.01l-6.36,30l25.77-17.23c4.8-3.21,10.5-5.5,16.48-6.63c3.21-0.61,6.54-0.91,9.91-0.91
	c10.72,0,20.69,3.16,26.68,8.46c6.41,5.67,9.69,14.45,9.73,26.09c0.05,13.5-3.38,24.65-10.2,33.16
	c-5.76,7.19-14.27,12.72-23.34,15.19l-17.45,4.74l10.27,14.01c3.34,6.13,6.1,12.3,8.23,18.33c3.99,11.31,6.22,23.01,6.6,34.77
	c0.07,2.34,0.08,4.58,0.02,6.69c-1.06-1.91-2.23-3.8-3.53-5.66c-6.85-9.75-17.02-16.9-29.41-20.65c-8.31-2.52-17.32-3.8-26.76-3.8
	c-3.59,0-7.23,0.19-10.85,0.57c-20.75,2.15-39.81,10.99-52.91,24.22C264.49,264.36,253.49,257.78,241.91,253.24z M268.06,344.86
	c-0.38,20.88-5.63,52.62-28.45,85.15c-19.39,27.64-46.01,32.8-64.94,32.26c-37.45-1.05-71.84-23.76-81.3-39.06l-0.2-0.35l-0.33-0.36
	c-0.5-0.58-11.1-13.41,0.08-42.71c5.14,7.66,12.9,16.2,21.24,14.54c9.26-1.86,14.06-14.29,15.54-40.32
	c1.77-31.21,19.66-46.5,34.35-53.85c24.17-12.07,57.6-11.26,86.09,1.15c-3.08,0.29-6.14,0.71-9.2,1.22
	c-5.65,0.97-11.23,2.35-16.71,4.14c-10.93,3.58-21.48,8.83-30.65,16.08c-4.56,3.66-8.69,7.86-12.23,12.51l-1.3,1.77l-0.65,0.88
	l-0.59,0.93l-2.3,3.73l-1.96,3.9c-0.69,1.28-1.13,2.68-1.68,4.02l-0.78,2.02c-0.27,0.67-0.42,1.38-0.63,2.08
	c-0.39,1.39-0.81,2.77-1.14,4.17c-0.48,2.84-1.12,5.63-1.24,8.49c-0.56,5.68-0.09,11.36,0.78,16.88c0.53-5.6,0.91-11.11,2.29-16.43
	c0.48-2.7,1.44-5.26,2.17-7.86c1.02-2.51,1.85-5.08,3.12-7.46c1.08-2.46,2.54-4.73,3.87-7.04l2.3-3.29
	c0.19-0.28,0.38-0.56,0.57-0.83l0.63-0.78l1.27-1.56l1.27-1.56l1.38-1.48c0.92-0.98,1.78-2,2.8-2.89c0.99-0.92,1.92-1.88,2.94-2.77
	l3.11-2.6c8.49-6.72,18.19-12.05,28.41-16.35c5.11-2.16,10.37-4.04,15.71-5.74c3.55-1.15,7.14-2.18,10.76-3.12
	c1.33,0.62,2.66,1.26,3.97,1.93c-0.15,3.24,0.48,6.53,1.94,9.49c0.56,1.13,1.24,2.18,2.03,3.17c-4.79,1.27-9.43,3.04-13.99,4.97
	c-5.25,2.26-10.34,4.92-15.23,7.93c-9.75,6.04-18.73,13.6-25.88,22.79c-3.54,4.62-6.54,9.67-8.86,15.01l-0.84,2.01l-0.42,1.01
	l-0.35,1.03l-1.33,4.15l-0.97,4.25c-0.37,1.4-0.45,2.86-0.66,4.3l-0.27,2.15c-0.09,0.71-0.06,1.45-0.1,2.16
	c-0.04,1.45-0.12,2.88-0.1,4.32c0.21,2.87,0.27,5.73,0.85,8.54c0.84,5.64,2.66,11.06,4.83,16.21c-0.83-5.56-1.81-11-1.75-16.49
	c-0.18-2.73,0.13-5.44,0.21-8.14c0.38-2.67,0.57-5.37,1.23-7.97c0.46-2.64,1.32-5.18,2.06-7.75l1.43-3.74
	c0.12-0.31,0.23-0.63,0.36-0.93l0.43-0.91l0.85-1.82l0.85-1.81l0.98-1.76c0.66-1.17,1.25-2.36,2.03-3.47
	c0.73-1.13,1.41-2.28,2.19-3.38l2.38-3.25c6.63-8.52,14.75-15.97,23.64-22.52c4.44-3.28,9.09-6.35,13.87-9.25
	c4.19-2.56,8.49-4.96,12.9-7.24c1.63,1.91,3.65,3.51,5.91,4.67C267.54,328.16,268.22,335.93,268.06,344.86z M424.39,408.52
	l-0.24,0.29l-0.19,0.33c-8.97,15.49-38.41,33.27-66.34,34.04c-15.32,0.4-36.85-4.12-52.6-28.11
	c-24.08-36.69-24.57-72.62-22.28-92.31c1.63-0.59,3.18-1.35,4.61-2.28c0.25-0.16,0.49-0.33,0.73-0.51
	c3.49,0.53,6.92,1.23,10.29,2.12c4.86,1.25,9.59,2.83,14.12,4.78c9.07,3.87,17.42,9.15,24.38,15.87l1.32,1.24l1.25,1.32
	c0.81,0.9,1.71,1.71,2.46,2.68l2.35,2.77l2.18,2.91c0.76,0.95,1.42,1.97,2.08,3c0.65,1.03,1.37,2,1.98,3.07
	c1.2,2.12,2.51,4.19,3.56,6.4c4.5,8.73,7.82,18.13,10.67,27.83c-0.26-10.11-2.32-20.24-6.15-29.84c-0.89-2.43-2.09-4.73-3.22-7.06
	c-0.57-1.17-1.27-2.27-1.92-3.4c-0.65-1.13-1.31-2.25-2.08-3.31c-2.83-4.4-6.32-8.39-10.11-12.05c-7.6-7.33-17.04-12.73-27.01-15.97
	c-5-1.61-10.14-2.71-15.32-3.21c-3.11-0.29-6.23-0.43-9.33-0.33c1.11-0.98,2.08-2.11,2.77-3.42c1.19-2.26,1.61-4.71,1.84-7.22
	c0.14-1.54,0.16-3.09,0.02-4.61c0.3-0.16,0.61-0.31,0.91-0.45c4.49,0.31,8.92,0.86,13.27,1.7c5.22,0.98,10.34,2.26,15.29,3.97
	c4.94,1.69,9.74,3.73,14.29,6.2c4.54,2.47,8.83,5.33,12.81,8.57c4,3.2,7.67,6.82,10.95,10.76c1.74,1.9,3.15,4.06,4.76,6.08
	l2.13,3.23c0.36,0.54,0.72,1.07,1.07,1.62l0.97,1.68c5.28,8.92,9.27,18.68,12.67,28.81c-0.83-10.64-3.6-21.21-8.29-31.08l-0.87-1.86
	c-0.32-0.61-0.66-1.2-0.99-1.8l-2.03-3.58c-1.53-2.28-2.97-4.64-4.74-6.77c-1.65-2.23-3.56-4.23-5.43-6.29
	c-2-1.92-3.99-3.87-6.18-5.6c-4.34-3.5-9.05-6.54-14.06-8.98c-5.01-2.45-10.27-4.32-15.64-5.65c-5.37-1.33-10.86-2.1-16.34-2.32
	c-2.74-0.1-5.48-0.1-8.21,0.08c-1.18,0.08-2.34,0.19-3.52,0.32c22.2-10.22,47.8-11.17,67.27-1.77
	c12.92,6.24,28.64,19.67,30.16,48.22c1.21,22.61,5.13,33.34,12.74,34.77c6.73,1.29,12.98-6.04,17.1-12.61
	C433.55,396.74,424.47,408.42,424.39,408.52z"/>
</svg>
